<svg xmlns="http://www.w3.org/2000/svg" xmlns:xlink="http://www.w3.org/1999/xlink" version="1.1" x="0px" y="0px" viewBox="0 0 90 112.5" enable-background="new 0 0 90 90" xml:space="preserve"><path fill="#b90000" d="M33.998,69.816c-0.223,0.095-0.188,0.516-0.188,0.516s0.563,0.446,0.706,0.212  c0.141-0.235,0.352-0.471,0.141-0.752C34.444,69.51,34.163,69.744,33.998,69.816z M38.252,75.527  c-0.564-0.234-0.987-0.681-1.528-0.284c-0.541,0.4-0.682,0.731-0.519,0.919c0.342,0.39,0.26,0.141,0.753,1.034  c0.494,0.892,0.071,1.222,0.776,1.362c0.705,0.142,0.917,0.518,1.198-0.07c0.282-0.588,0.447-0.563,0.235-1.151  S38.816,75.763,38.252,75.527z M31.883,69.885c-0.4-0.024-0.564-0.118-1.105,0.047c-0.502,0.153-0.681,0.566-0.775,1.012  c-0.094,0.446-0.165,0.751-0.165,0.751s0.119,0.495,0.33,0.777c0.21,0.281,0.117,0.445,0.587,0.682  c0.47,0.234,1.081,0.517,1.457,0.305c0.376-0.211,1.127-0.611,1.198-1.269c0.072-0.658-0.022-1.151-0.517-1.67  C32.399,70.004,32.282,69.91,31.883,69.885z M29.157,72.025c-0.235-0.144-0.659-0.165-0.988-0.119  c-0.329,0.048-0.729,0.353-1.128,0.729c-0.399,0.377,0.021,0.707-0.446,0.894c-0.117,0.048-0.353,0.118-0.634,0.166  c-0.282,0.047-0.33,0.141-0.471,0.327c-0.141,0.188-0.282,0.259-0.493,0.212c-0.213-0.047-0.283-0.236-0.283-0.423  c0-0.188-0.94-0.095-1.409-0.234c-0.47-0.142-0.706-0.024-1.34,0.259c-0.635,0.282-0.212,0.352-0.658,1.222  c-0.447,0.868-0.094,0.893-0.141,1.435c-0.047,0.54,0.212,0.352,0.517,0.705c0.306,0.353,0.706,0.375,1.128,0.492  c0.423,0.118,0.541,0.258,0.94,0.189c0.399-0.071,0.33-0.377,0.611-0.541c0.282-0.163,0.87-0.682,0.87-0.682s0.188-0.589,0.188-0.87  c0-0.282,0.164-0.376,0.257-0.492c0.095-0.118,0.142-0.096,0.565-0.189c0.424-0.094,0.353-0.188,0.4-0.4  c0.048-0.21,0-0.305,0.211-0.423c0.211-0.117,0.471,0.142,0.729,0.305c0.258,0.166,0.4,0.378,0.494,0.401  c0.093,0.023,0.376,0,0.446-0.189c0.07-0.188,0.305-0.352,0.47-0.517s0.21-0.233,0.282-0.516c0.072-0.283,0.353-0.377,0.47-0.636  s-0.023-0.517-0.094-0.705C29.579,72.236,29.392,72.165,29.157,72.025z M20.602,76.82c-0.258-0.118-0.519-0.118-0.658-0.048  c-0.141,0.07-0.588,0.564-0.871,0.823c-0.282,0.258-0.422,0.093-0.657,0.282c-0.235,0.188-0.329,0.188-0.659,0.353  c-0.328,0.165-0.54,0.165-0.987,0.211c0,0-0.188,0.023-0.516-0.117c-0.33-0.141-0.212-0.072-0.212-0.306  c0-0.235,0.565-0.563,0.706-0.563c0.142,0,0.047-0.212-0.071-0.307c-0.118-0.094-0.328-0.047-0.587,0.142  c-0.258,0.188-0.376,0.118-0.305-0.188c0.071-0.306-0.188-0.259-0.211-0.423c-0.023-0.165-0.329-0.142-0.517-0.023  c-0.188,0.117-0.094,0.188,0,0.353c0.094,0.166,0.094,0.282-0.094,0.657c-0.188,0.376-0.282,0.166-0.963,0.331  c-0.682,0.162-0.636,0.256-1.223,0.588c-0.587,0.328-0.799,0.891-1.292,1.691c-0.494,0.8-0.564,2.374-0.354,2.68  c0.21,0.306,0.541,0.752,0.893,1.08c0.353,0.331,1.2,0.306,1.693,0.564c0.494,0.259,1.152,0.189,1.715,0.189  c0.564,0,0.824-0.472,1.058-0.565c0.235-0.095,0.729-0.657,0.799-0.893c0.071-0.236,0.306-0.588,0.447-0.729  c0.141-0.141,0.047-0.516,0.118-0.752c0.07-0.234,0.282-0.211,0.329-0.494c0.048-0.282-0.141-0.306-0.234-0.494  c-0.094-0.188-0.094-0.682,0-0.985c0.094-0.306,0.234-0.377,0.305-0.493c0.071-0.118,0.165-0.236,0.541-0.4s0.118-0.118,0.329-0.469  c0.212-0.354,0.235-0.189,0.588-0.424c0.353-0.237,0.682-0.119,0.682-0.119s0.375-0.093,0.493-0.306  c0.119-0.21,0.188-0.399,0.141-0.585C20.978,76.89,20.86,76.937,20.602,76.82z M15.426,73.493c0.791,0,1.649,0.13,1.78-0.594  c0.131-0.725-0.396-1.648-0.791-1.714c-0.396-0.066-0.923-0.132-1.188-0.198c-0.748-0.188-0.922,0.461-0.791,1.253  C14.568,73.031,14.635,73.493,15.426,73.493z M11.356,74.928c0.59-0.153,0.7,0.395,1.269,0c0.568-0.394,0.459-0.611,0.568-0.963  c0.11-0.349,0.176-0.524-0.153-0.547c-0.328-0.021-0.853-0.021-1.072,0.045c-0.403,0.121-0.394,0.196-0.591,0.502  c-0.197,0.308-0.175,0.461-0.306,0.635c-0.131,0.175-0.677-0.087-0.875-0.196c-0.198-0.108-0.503-0.22-0.942,0  c-0.438,0.219-0.438,0.351-0.569,0.481c-0.132,0.132-0.438,0.547-0.635,0.59c-0.196,0.045-0.699,0.372-0.984,0.438  c-0.285,0.065-0.592,0.548-0.351,0.548c0.241,0,0.656-0.308,0.919-0.371c0.262-0.067,0.634-0.221,0.765-0.308  c0.132-0.087,0.22-0.284,0.46-0.13c0.24,0.152-0.022-0.022,0.634,0.173c0.657,0.197,0.678,0.461,1.204,0.11  C11.224,75.585,10.766,75.08,11.356,74.928z M12.953,73.179c0.176,0.042,0.284,0.065,0.416,0.042  c0.131-0.021,0.285-0.064,0.241-0.152c-0.043-0.087,0.021-0.352-0.088-0.503c-0.109-0.154-0.328-0.307-0.656-0.131  c-0.137,0.072-0.177,0-0.154,0.282C12.734,73.002,12.778,73.136,12.953,73.179z M12.166,72.128  c-0.088-0.089-0.373-0.066-0.373-0.066c-0.065,0.088,0.022,0.328,0.022,0.328S12.252,72.215,12.166,72.128z M10.677,71.953  c0.131-0.133,0.395-0.373,0.176-0.46c-0.22-0.088-0.284,0.021-0.284,0.021c-0.154,0.087-0.264,0.152-0.22,0.306  S10.545,72.083,10.677,71.953z M11.421,70.53c0.109-0.154,0.064-0.284-0.11-0.284c-0.175,0,0.043-0.068-0.306,0.13  c-0.171,0.097,0.066,0.394,0.066,0.394S11.312,70.684,11.421,70.53z M5.928,76.286c-0.46-0.285-0.547-0.417-1.006-0.329  c-0.459,0.086-0.767,0.153-0.853,0.263c-0.449,0.562-0.482,0.94-0.482,0.94s0.657,1.094,1.313,1.008  c0.657-0.088,1.292-0.285,1.335-0.767C6.278,76.92,6.388,76.57,5.928,76.286z M3.113,78.039c-0.241,0-0.285-0.042-0.351,0.088  c-0.123,0.245-0.219,0.591,0,0.635c0.219,0.045,0.504-0.022,0.547-0.285S3.354,78.039,3.113,78.039z M1.604,78.807  c-0.066,0-0.231,0.062-0.307,0.13C1.134,79.079,1.1,79.2,1.274,79.242c0.176,0.045,0.197,0,0.329-0.108  C1.734,79.023,1.669,78.807,1.604,78.807z M37.224,46.66c0.805-0.321,1.996-0.611,1.385-1.546c-0.612-0.934-0.934-1.352-1.611-1.449  c-0.676-0.096-0.999-0.16-1.417,0.097c-0.81,0.499-1.256,0.806-0.836,1.579C35.163,46.113,36.419,46.982,37.224,46.66z M36,50.621  c1.031,0,1.416-0.999,0.741-1.804c-0.676-0.805-1.224-1.095-1.771-0.965c-0.511,0.12-1.417,0.709-1.031,1.868  C34.324,50.878,34.971,50.621,36,50.621z M69.588,38.144c0.593-0.411,0.89-0.428,1.171-0.626c0.279-0.198,0.922-1.137,1.187-1.862  c0.264-0.726,0.479-1.137,0.609-1.434c0.134-0.296,0.364-0.593,0.644-0.692c0.279-0.1,0.874-0.149,0.906-0.513  c0.032-0.362-0.132-0.412,0.148-0.922c0.279-0.512,0.347-0.479,0.741-0.825c0.396-0.346,0.312-0.182,0.726-0.51  c0.413-0.331,0.758-0.579,0.742-0.973c-0.016-0.396-0.198-0.428-0.496-0.478c-0.295-0.05-0.476,0.346-0.854,0.66  c-0.381,0.312-0.562,0.51-0.677,0.757c-0.115,0.248-0.312,0.544-0.577,0.808c-0.263,0.265-0.561,0.841-0.774,0.874  c-0.216,0.034-0.874-0.165-1.417-0.082c-0.545,0.082-1.056,0.643-0.808,1.104c0.246,0.461,0.675,0.017,0.856,0.065  c0.181,0.05,0.279,0.33,0.165,0.396c-0.115,0.066-0.807,0.808-1.385,1.567c-0.578,0.757-2.044,2.636-2.688,3.247  c-0.642,0.61-1.696,1.581-2.256,2.29c-0.562,0.71-0.825,1.303-1.204,1.583c-0.38,0.281-1.221,1.434-1.402,1.599  c-0.182,0.166-1.021,0.214-1.137,0.066c-0.115-0.148-0.215-0.049-0.066-0.297c0.149-0.247,0.857-1.565,1.254-1.763  c0.396-0.198,0.526-0.413,0.972-0.841c0.445-0.429,1.188-1.006,1.435-1.236c0.247-0.232,1.006-0.974,1.336-1.501  c0.33-0.526,0.642-0.907,0.46-1.006c-0.18-0.099-0.988,0.791-1.286,0.989c-0.295,0.199-1.35,1.072-1.467,1.287  c-0.115,0.214-1.004,1.137-1.284,1.269s-0.61,0.396-0.742,0.511s-0.313,0.346-0.396,0.23c-0.082-0.115-0.197-0.345-0.147-0.526  c0.049-0.181-0.166-0.594-0.66-0.841c-0.495-0.247-0.84-0.361-1.878-0.066c-1.04,0.297-1.041,0.692-1.172,0.891  c-0.13,0.198-0.115,0.676-0.051,0.873c0.068,0.197,0.051,0.28-0.097,0.296c-0.149,0.018-0.395,0.018-0.61,0.1  c-0.214,0.083-0.809,0.295-0.974,0.295c-0.163,0-0.312,0.085-0.758,0.167c-0.443,0.081-0.642,0.229-0.807,0.295  c-0.164,0.065-0.676,0.18-0.742,0.56s-0.065,0.659-0.297,0.742c-0.229,0.083-0.922,0.825-1.089,0.825  c-0.164,0-0.427,0.364-0.542,0.412c-0.116,0.05-0.726,0.067-1.038,0.149c-0.314,0.083-0.825,0.691-1.072,0.955  c-0.248,0.265-0.495,0.229-0.939,0.347c-0.447,0.116-1.304,0.626-1.369,0.215c-0.064-0.412,0.281-0.859,0.265-1.089  c-0.017-0.23-0.083-0.693,0.032-0.858c0.115-0.163-0.1-0.921-0.065-1.119c0.033-0.199-0.329-0.858-0.742-1.089  c-0.411-0.231-0.809-0.296-1.467,0.065c-0.66,0.363-1.747,1.78-1.549,3.066c0.197,1.285,0.576,1.038,0.823,1.253  c0.248,0.215,0.527,0.61,0.874,0.626c0.345,0.017,0.56-0.197,0.775-0.032c0.213,0.166,0.263,0.231,0.114,0.56  c-0.148,0.33-0.429,0.511-0.594,0.61c-0.164,0.099-1.152,0.873-1.367,0.824c-0.215-0.05-0.33-0.133-0.528,0.049  c-0.198,0.182-0.148,0.578-0.396,0.677s-1.071,0.66-1.484,0.725c-0.411,0.066-1.301,0.494-1.533,0.512  c-0.231,0.016-0.593-0.101-0.955-0.148c-0.363-0.05-1.171-0.232-1.518-0.099c-0.346,0.131-0.808,0.478-1.137,0.543  c-0.33,0.066-0.792,0.397-0.957,0.38c-0.164-0.016-0.726-0.197-1.071-0.28c-0.347-0.082-1.138,0.017-1.237,0.23  c-0.099,0.215-0.279,0.462-0.131,0.577c0.148,0.114,0.461,0.214,0.412,0.396c-0.05,0.182-0.051,0.132,0.115,0.346  s0.231,0.199,0.495,0.264c0.264,0.067,0.544,0.229,0.479,0.561c-0.067,0.33-0.346,0.627-0.461,0.528s-0.479-0.33-0.561-0.149  c-0.082,0.183-0.131,0.364-0.329,0.396s-0.368-0.094-0.53-0.154c-0.526-0.196-1.45-0.096-1.933,0.516  c-0.483,0.611-1.384,1.771-0.322,2.479c1.062,0.709,2.253,1.191,3.026,0.773c0.774-0.417,1.161-0.258,1.675-1.126  c0.516-0.87,0.516-1.515,0.999-1.161c0.484,0.355,1.321,0.548,1.997,0.387c0.675-0.16,1.866-0.515,2.543-1.642  c0.677-1.127,0.579-1.354,0.322-1.643c-0.257-0.289,0.419-0.289,0.935-1.159c0.516-0.871,0.321-0.807,1.159-0.999  c0.837-0.193,1.128-0.193,1.482-0.483c0.353-0.289,1.096-1.48,1.707-1.32c0.611,0.161,1.256,0.418,1.933-0.098  c0.677-0.514,0.773-1.545,1.224-1.867c0.451-0.32,0.58,0,1.224-0.483c0.645-0.482,0.484-1.03,0.901-1.417  c0.419-0.386,0.046-0.537,0.329-0.66c0.284-0.125,0.197-0.062,0.619-0.186c0.42-0.123,0.42-0.408,0.618-0.544  c0.197-0.136,0.37,0.111,0.654-0.038c0.284-0.148,0.457,0,0.655-0.148c0.197-0.148,0.297-0.507,0.408-0.606  c0.111-0.099,0.186-0.16,0.396-0.073c0.209,0.086,0.605,0.173,0.765,0.073c0.162-0.099,0.111-0.148,0.558-0.333  c0.445-0.185,0.58-0.272,0.89-0.259c0.31,0.012,0.434-0.235,0.742-0.099s0.272,0.086,0.556,0.223c0.284,0.136,0.42,0.124,0.42,0.124  s-0.123,0.371-0.679,0.617c-0.558,0.248-0.729,0.335-0.941,0.619c-0.21,0.285-0.753,1.187-1.26,1.384  c-0.508,0.198-0.866,0.147-1.409,0.643s-0.482,1.053-1.075,1.199c-0.594,0.148-0.607-0.173-1.126,0.174  c-0.519,0.346-0.777,0.507-0.891,0.866c-0.111,0.357-0.061,0.592,0.125,1.148c0.187,0.556,0.197,0.681,0.543,0.655  c0.346-0.024,0.483,0.025,0.36,0.148c-0.125,0.124-0.706,0.805-1.337,1.149c-0.631,0.348-0.741,0.434-1.039,0.743  c-0.296,0.309-0.753,0.605-0.976,0.704c-0.223,0.101-0.829,0.854-1.199,0.952c-0.371,0.099-1.285,0.457-1.929,0.951  c-0.644,0.495-0.828,0.89-1.162,1.002c-0.334,0.11-0.618,0.506-1.076,0.717c-0.458,0.21-0.828,0.383-1.298,0.729  c-0.47,0.347-0.186,0.234-0.717,0.358c-0.531,0.123-0.89,0.359-1.038,0.52c-0.149,0.16-0.322,0.11-0.272,0.037  c0.049-0.075-0.062-0.309,0.124-0.421c0.186-0.11,0.272-0.421,0.223-0.691c-0.05-0.272-0.347-0.928-1.101-0.544  c-0.754,0.383-0.644,0.89-0.495,1.111c0.148,0.224,0.532,0.348,0.729,0.396c0.199,0.051,0.47,0.161,0.383,0.284  c-0.085,0.124,0.038,0.136-0.148,0.247c-0.185,0.112-0.259,0.148-0.444,0.272c-0.186,0.123-0.52,0.445-1.014,0.655  s-0.988,0.52-1.409,0.668c-0.42,0.147-0.952,0.296-1.706,0.754c-0.754,0.457-1.434,0.644-2.003,0.976  c-0.568,0.335-1.223,0.842-1.94,1.113c-0.718,0.271-1.571,1.113-1.83,1.124c-0.26,0.014-1.002,0.261-2.214,0.756  c-1.211,0.493-1.879,1.049-2.732,1.335c-0.853,0.284-1.817,0.58-2.064,0.642c-0.247,0.062-0.618,0.236-1.595,0.099  c-0.977-0.135-2.287-0.543-3.153,1.052c-0.865,1.596-0.469,2.633,0.458,3.029c0.927,0.396,1.558,0.507,2.757,0.297  c1.199-0.21,1.706-0.681,1.817-1.322c0.111-0.645,0.692-1.473,0.927-2.114c0.235-0.645,0.309-0.618,0.742-0.717  c0.433-0.1,1.533-0.508,1.916-0.73c0.383-0.223,0.544-0.148,1.051-0.248c0.507-0.098,1.311-0.704,1.817-0.938  c0.507-0.235,1.521-0.594,1.978-0.729c0.458-0.137,0.804-0.409,1.422-0.779c0.619-0.371,1.039-0.544,1.423-0.531  c0.382,0.013,0.741,0.013,0.877,0.197c0.136,0.187,0.642,0.322,0.891,0.421c0.247,0.099,0.655,0.21,0.866,0.297  c0.21,0.086,0.247,0.086,0.519,0.198c0.272,0.111,0.47,0.172,0.531,0.024c0.062-0.149-0.037-0.26-0.433-0.272  c-0.396-0.012-1.039-0.186-1.187-0.234c-0.148-0.05-0.631-0.21-0.866-0.358s-0.26-0.088-0.309-0.346  c-0.049-0.26,0.111-0.321,0.259-0.52c0.148-0.197,0.507-0.446,0.681-0.421c0.172,0.024,0.432,0.111,0.494-0.014  c0.062-0.122,0.272-0.282,0.593-0.506c0.322-0.223,0.482-0.271,0.904-0.531c0.42-0.26,0.482-0.272,0.89-0.495  c0.407-0.222,0.89-0.494,1.101-0.704c0.21-0.211,0.309-0.234,0.371,0.062c0.061,0.297,0.037,0.531,0.408,0.618  c0.37,0.087,0.494,0.036,0.568,0.247c0.074,0.211,0.297,0.297,0.025,0.718c-0.272,0.421-0.21,0.938-0.372,0.952  c-0.161,0.012-0.469,0.024-0.482,0.135c-0.013,0.111,0.062,0.31-0.024,0.495c-0.086,0.186-0.1,0.297-0.186,0.704  c-0.086,0.408-0.445,0.656-0.259,0.915c0.185,0.261-0.037,0.174,0.506,0.421c0.544,0.247,0.854,0.085,1.298,0.407  c0.445,0.322,0.765,0.358,1.113,0.31c0.346-0.05,0.456-0.173,0.828-0.52c0.371-0.346,0.976-0.815,1.038-1.149  c0.062-0.334,0.051-0.47,0.051-0.729c0-0.261,0.012-0.618,0.321-1.176c0.309-0.555,0.419-0.605,0.408-0.989  c-0.013-0.382-0.137-0.457-0.495-0.654s-1.681-0.334-1.855-0.334c-0.172,0-0.717,0.137-0.803-0.111  c-0.086-0.247,0.012-0.581-0.075-0.755c-0.086-0.172-0.222-0.271-0.258-0.48c-0.038-0.211,0-0.298,0.197-0.371  c0.198-0.075,0.445-0.198,0.667-0.396c0.223-0.197,0.211-0.408,0.532-0.396c0.321,0.013,0.407-0.408,0.605-0.445  c0.198-0.036,0.321-0.148,0.544-0.271c0.223-0.124,0.532-0.235,0.891-0.481c0.358-0.248,0.901-0.756,1.161-0.892  c0.26-0.135,0.236-0.087,0.791-0.309c0.558-0.222,0.816-0.459,0.928-0.643c0.111-0.186,0.236-0.47,0.617-0.62  c0.384-0.146,0.645-0.579,0.743-0.74c0.099-0.159,0.42-0.247,0.741-0.407c0.321-0.161,0.433-0.31,0.717-0.544  c0.285-0.236,0.656-0.668,1.125-0.965c0.47-0.298,0.248-0.284,0.965-0.494c0.717-0.211,0.927-0.37,1.496-0.581  c0.568-0.211,0.556-0.235,1.075-0.148c0.519,0.085,0.42,0.161,0.717,0.271c0.297,0.111,0.384,0.038,0.705,0.16  c0.322,0.124,0.594,0.309,0.767,0.408s0.261-0.247,0.52-0.347c0.259-0.098,0.638-0.201,1.018-0.052  c0.38,0.148,0.312,0.197,0.445,0.329c0.131,0.132,0.297,0.132,0.445,0.362c0.147,0.232,0.281,0.148,0.363,0.265  c0.08,0.114,0.017,0.281,0.296,0.329c0.279,0.05,0.314,0.131,0.642-0.082c0.331-0.215,0.348-0.512,0.298-0.71  s-0.248-0.396-0.148-0.575c0.099-0.182,0.114-0.412,0.279-0.313c0.166,0.099,0.579,0.476,0.907,0.609  c0.329,0.132,0.609,0.081,0.973,0.066c0.362-0.018,0.955-0.147,1.235-0.33c0.282-0.183,0.596-0.627,0.825-1.022  s0.297-0.691,0.297-0.856c0-0.166-0.049-0.528,0.05-0.825c0.098-0.296-0.165-0.461-0.38-0.594c-0.214-0.131-0.544-0.197-0.609-0.411  c-0.067-0.214-0.348-0.214-0.609-0.461c-0.265-0.247-0.595-0.184-0.661-0.462c-0.065-0.281-0.396-0.595-0.626-0.479  c-0.229,0.115-0.774,0.231-0.906,0.362c-0.132,0.133-0.313,0.331-0.527,0.331s-0.495,0.163-0.562-0.066  c-0.064-0.231-0.131-0.562,0.265-0.892c0.396-0.327,0.281-0.51,0.856-0.593c0.577-0.082,0.677-0.296,0.692-0.511  c0.017-0.213-0.114-0.396-0.395-0.527c-0.279-0.13-0.576-0.049-0.396-0.328c0.182-0.281,0.644-0.809,0.923-1.156  c0.28-0.345,0.791-0.741,1.089-1.169c0.296-0.429,0.527-1.138,1.12-1.418c0.594-0.281,1.072-0.626,1.418-1.188  C68.962,39.018,68.994,38.557,69.588,38.144z M40.443,39.809c0.339-0.16,0.373-0.641,0.159-0.854  c-0.213-0.214-0.586-0.107-0.747-0.107c-0.269,0-0.713,0.267-0.499,0.516C39.57,39.613,40.104,39.969,40.443,39.809z M42.028,38.668  c0.464,0.125,0.554-0.214,0.874-0.41c0.321-0.196,0.731-0.586,0.57-0.925c-0.161-0.339-1.087-1.283-2.12-0.625  c-0.235,0.151-0.447,1.177-0.108,1.354C41.583,38.242,41.565,38.544,42.028,38.668z M48.051,37.349  c0.604,0.375,0.534,0.375,1.424,0.482c0.893,0.107,1.587-0.001,2.086-0.588c0.5-0.587,0.854-1.033,0.445-1.621  s-0.998-1.016-1.532-1.123c-0.534-0.107-1.122-0.231-1.639-0.125c-0.518,0.107-0.873,0.159-1.176,0.392  c-0.302,0.23-0.98,0.714-0.767,1.444C47.105,36.94,47.446,36.975,48.051,37.349z M50.687,34.32c0.392,0,0.625,0.072,0.82-0.177  c0.196-0.249-0.089-0.748-0.284-0.819c-0.197-0.071-0.5-0.071-0.642,0c-0.436,0.216-0.713,0.178-0.571,0.463  C50.152,34.071,50.296,34.32,50.687,34.32z M51.223,32.966c0.125-0.017,0.303-0.284,0.089-0.303  C51.153,32.652,51.098,32.985,51.223,32.966z M52.578,32.309c0.23,0.088,0.498,0.16,0.604,0.017  c0.106-0.142-0.037-0.516-0.268-0.463C52.664,31.921,52.346,32.219,52.578,32.309z M53.753,32.522c0.07,0,0.285-0.286,0.055-0.286  C53.563,32.236,53.683,32.522,53.753,32.522z M56.746,32.326c0.143-0.072,0.57-0.32,0.268-0.588  c-0.303-0.267-0.303-0.215-0.498-0.231c-0.233-0.021-0.376,0.106-0.376,0.356C56.14,32.112,56.604,32.397,56.746,32.326z   M59.598,33.788c0.659-0.072,1.479-0.375,2.191-0.909c0.713-0.535,1.069-1.195,1.497-1.64c0.427-0.445,0.642-0.48,1.495-0.374  c0.857,0.107,1.642-0.09,2.086-1.176c0.445-1.086,0.552-1.55,1.016-1.497c0.464,0.053,0.479,0.107,1.032,0.053  c0.554-0.053,0.981-0.409,0.732-0.695c-0.25-0.284-0.571-0.087-0.839-0.195c-0.267-0.108-1.175-0.231-0.854-0.963  c0.319-0.729-0.071-0.677,0.568-0.873c0.643-0.195,0.626-0.339,0.856-0.462c0.232-0.125,0.106,0.018,0.393,0.088  c0.285,0.071,0.675,0.054,0.872-0.249c0.196-0.303,0.641-0.571,0.285-0.82c-0.356-0.249-1.301-0.303-1.531-0.053  c-0.232,0.249-0.214,0.178-0.356,0.463c-0.144,0.285-0.589,0.481-0.838,0.481s-0.997-0.018-1.407,0.197  c-0.41,0.212-1.123,0.035-1.925,0.248c-0.802,0.215-2.048,1.159-2.566,2.085c-0.516,0.926-0.747,1.104-1.174,1.104  c-0.428,0-1.052,0-1.302,0.072c-0.249,0.07-0.57,0.124-0.854,0.409c-0.364,0.363-0.979,1.568-1.033,2.245  c-0.055,0.677-0.251,0.677,0.23,1.372C58.654,33.395,58.939,33.858,59.598,33.788z M71.1,21.251c0.322,0.148,1.236-0.223,1.953-0.42  s1.139-0.148,1.534-0.939c0.395-0.792,0.618-1.682,0.173-1.978c-0.444-0.297-0.544-0.989-1.038-0.89  c-0.495,0.099-1.088,0.618-1.187,0.89c-0.101,0.272-0.175,0.618-0.298,0.667c-0.701,0.279-1.285,1.137-1.385,1.533  C70.754,20.509,70.778,21.103,71.1,21.251z M73.82,16.356c0.023-0.322,0.05-0.421,0.222-0.644c0.174-0.222,0.297-0.296,0.644-0.568  s0.321-0.964,0.593-1.36c0.273-0.396,0.396-0.593,0.396-0.89c0-0.296,0.099-0.593-0.223-0.371c-0.322,0.222-0.718,0.618-0.816,0.964  s-0.272,0.569-0.32,0.717c-0.051,0.148-0.224,0.445-0.298,0.52c-0.369,0.368-0.495,1.014-0.644,1.187  c-0.147,0.172-0.073,0.396,0,0.495C73.449,16.504,73.796,16.677,73.82,16.356z M77.009,10.892c0.198-0.173,0.348-0.372,0.225-0.544  c-0.125-0.174-0.423-0.124-0.495,0.049c-0.07,0.164-0.47,0.296-0.47,0.519c0,0.224,0.172,0.445,0.172,0.445  S76.811,11.064,77.009,10.892z M81.188,6.367c0.271-0.198,0.148-0.396,0.42-0.594c0.271-0.197,0.297-0.618,0.1-0.618  c-0.198,0-0.471,0.297-0.545,0.346c-0.414,0.275-0.47,0.42-0.52,0.619C80.595,6.316,80.915,6.564,81.188,6.367z M65.438,22.76  c-0.197-0.223-0.32-0.26-0.432-0.235c-0.211,0.047-0.248,0.271-0.248,0.271s0.074,0.087,0.346,0.137  C65.376,22.982,65.637,22.982,65.438,22.76z M66.848,20.3c0.086-0.062,0.271-0.137,0.284-0.259c0.012-0.125,0.136-0.297,0.012-0.347  c-0.123-0.05-0.21,0-0.283,0.074c-0.062,0.062-0.062,0.161-0.087,0.259C66.748,20.126,66.761,20.362,66.848,20.3z M68.479,16.702  c0.123-0.124,0.098-0.395-0.013-0.407c-0.111-0.013-0.371-0.05-0.407,0.062c-0.066,0.194-0.062,0.445-0.062,0.445  S68.355,16.826,68.479,16.702z M69.629,35.231c-0.271,0.012-0.593,0.025-0.741,0.235c-0.148,0.211-0.136,0.222-0.321,0.346  c-0.483,0.323-0.768,0.507-0.902,0.854c-0.137,0.345-0.385,0.469-0.223,0.593c0.16,0.124,0.619,0.087,1.025-0.197  c0.408-0.285,0.544-0.482,0.755-0.742c0.209-0.26,0.494-0.075,0.531-0.495C69.79,35.403,69.901,35.218,69.629,35.231z   M71.583,31.015c0.112,0.248,0.246,0.137,0.47,0.248c0.223,0.111,0.396,0.185,0.829-0.013c0.432-0.198,0.679-0.791,0.444-0.964  c-0.234-0.173-0.753-0.383-1.187-0.149C71.757,30.345,71.471,30.768,71.583,31.015z M74.253,28.208  c-0.396,0.142-0.643,0.198-0.668,0.532c-0.024,0.334-0.062,0.469,0.323,0.495c0.383,0.023,0.457,0.023,0.803-0.075  s0.594-0.26,0.531-0.642C75.181,28.134,74.698,28.047,74.253,28.208z M77.764,26.824c-0.29,0.207-0.767,0.285-0.815,0.507  c-0.051,0.223-0.023,0.706,0.371,0.742s0.828,0.222,0.951-0.223c0.124-0.445,0.037-0.556,0.322-0.618  c0.284-0.062,0.223-0.334,0.062-0.408C78.493,26.75,78.099,26.589,77.764,26.824z M76.897,26.602  c0.372-0.261,0.459-0.507,0.533-0.445c0.073,0.062,0.222-0.025,0.333,0.049c0.112,0.074,0.16,0.198,0.42,0.148  c0.262-0.049,0.619,0.05,0.742-0.334c0.124-0.383,0.025-0.952,0.111-1.075c0.087-0.124-0.05-0.124,0.347-0.124  c0.396,0,0.779-0.21,0.915-0.433c0.136-0.223,0.122-0.507,0.309-0.816c0.186-0.309,0.284-0.383,0.284-0.544  c0-0.16-0.185-0.532-0.148-0.766c0.037-0.235,0.272-0.346,0.074-0.507c-0.197-0.161-0.594-0.358-0.717-0.173  c-0.124,0.186-0.197,0.469-0.346,0.507c-0.149,0.037-1.001,0.272-1.076,0.532c-0.073,0.26,0.235,0.606,0.013,0.965  c-0.222,0.358-0.246,0.345-0.384,0.469c-0.136,0.124-0.321,0.396-0.333,0.47c-0.013,0.074-0.198,0.445-0.198,0.445  c-0.482,0.495-1.248,1.348-1.211,1.496S76.528,26.861,76.897,26.602z M80.917,23.807c0,0.285,0.111,0.445,0.285,0.557  c0.172,0.111,0.691,0.16,0.963-0.074c0.272-0.236,0.421-0.297,0.358-0.667c-0.062-0.371-0.284-0.532-0.444-0.532  c-0.161,0-0.605,0.124-0.705,0.161C81.12,23.346,80.917,23.523,80.917,23.807z M84.836,16.105c0.42-0.136,0.456-0.185,0.495,0.049  c0.036,0.235,0.432,0.148,0.704,0.013c0.271-0.136,0.445-0.297,0.557-0.507s0.271-0.037,0.359-0.358  c0.085-0.322-0.422-0.346-0.73-0.408c-0.311-0.062-0.434-0.05-0.605,0.074c-0.312,0.223-0.928,0.347-1.112,0.729  c-0.186,0.383-0.336,0.767-0.212,0.829C84.415,16.587,84.415,16.241,84.836,16.105z M86.295,22.386  c-0.05,0.186-0.124,0.271,0.161,0.507c0.284,0.235,0.109,0.469,0.419,0.383s0.421-0.421,0.632-0.619  c0.209-0.197,0.161-0.049,0.295-0.284c0.137-0.235-0.035-0.408-0.37-0.482c-0.334-0.074-0.568,0.038-0.568,0.038  C86.442,22.064,86.345,22.2,86.295,22.386z M85.38,24.587c-0.124,0.007-0.148,0.049-0.285,0.074  c-0.135,0.024-0.334,0.111-0.345,0.223c-0.014,0.111-0.062,0.321,0.309,0.283c0.371-0.037,0.481-0.012,0.605-0.074  c0.123-0.062,0.198-0.099,0.111-0.223C85.688,24.747,85.564,24.574,85.38,24.587z M76.812,23.214c-0.47,0-0.889-0.062-1.124-0.086  c-0.395-0.042-0.877,0-1.2,0.086c-0.321,0.087-0.593-0.111-0.691-0.197c-0.098-0.087-0.704-0.471-0.815-0.383  c-0.113,0.086-0.384-0.173-0.422-0.05c-0.036,0.124-0.098,0.21,0.015,0.358c0.11,0.148,0.271,0.137,0.233,0.297  c-0.037,0.161-0.346,0.222-0.31,0.457c0.038,0.235,0.137,0.47,0.421,0.495c0.284,0.025,0.272,0.21,0.619,0.124  c0.345-0.086,0.457-0.296,0.642-0.198c0.187,0.099,0.124,0.174,0.284,0.186c0.161,0.012,0.384-0.161,0.531-0.186  c0.149-0.024,0.285-0.086,0.358,0.025c0.075,0.111,0.175-0.087,0.545,0.049c0.371,0.137,0.507,0.149,0.804,0.038  c0.296-0.112,0.668-0.223,0.568-0.47C77.171,23.511,77.282,23.214,76.812,23.214z M73.178,25.179  c0.062-0.16,0.136-0.309-0.013-0.358s-0.334-0.074-0.433-0.037c-0.186,0.069-0.309,0.123-0.334,0.198  c-0.024,0.074,0.111,0.321,0.26,0.384C72.807,25.427,73.115,25.34,73.178,25.179z M80.719,27.034  c0.012-0.148-0.32-0.271-0.407-0.248c-0.133,0.038-0.186,0.062-0.235,0.198c-0.05,0.137,0.087,0.186,0.247,0.235  C80.485,27.269,80.707,27.182,80.719,27.034z M86.714,26.083c-0.543-0.124-0.889-0.371-1.494-0.161  c-0.606,0.209-0.507,0.111-1.015,0.358c-0.507,0.247-0.717,0.358-0.828,0.296c-0.111-0.061-0.173-0.235-0.259-0.247  c-0.088-0.012-0.421-0.038-0.421-0.038c-0.284,0.013-0.482,0.013-0.655,0.124c-0.174,0.112,0.012,0.321,0.012,0.321  s0.779,0.384,0.977,0.396c0.198,0.012,0.396-0.136,0.494-0.161c0.101-0.025,0.285,0.322,0.434,0.42  c0.148,0.099,0.668,0.396,1.038,0.469c0.371,0.074,0.804,0.186,1.547-0.05c0.74-0.234,1.1-0.717,0.95-1.075  C87.346,26.379,87.26,26.206,86.714,26.083z M79.507,29.841c0,0.161,0.26,0.481,0.445,0.63c0.185,0.148,0.778,0.309,0.988,0.161  c0.211-0.149,0.272-0.433,0.459-0.68c0.186-0.248,0.309-0.495,0.186-0.593c-0.125-0.1-0.606-0.495-1.138-0.335  C80.051,29.144,79.507,29.68,79.507,29.841z M87.209,33.017c-0.147-0.296-0.594-0.74-1.334-0.74c-0.743,0-1.879,0.395-2.028,0.543  c-0.272,0.273-0.89,1.088-1.038,1.779c-0.148,0.692-0.743,1.335-0.05,1.335c0.692,0,0.939-0.346,1.237,0.05  c0.295,0.396,1.335,0.644,1.335,0.644s0.642,0.247,1.284-0.742C87.26,34.897,87.358,33.314,87.209,33.017z M74.501,48.611  c0.296-0.296,1.318-1.317,1.517-1.583c0.198-0.263,0.429-0.394,0.56-0.296c0.132,0.099,0.362,0.033,0.594-0.033  c0.23-0.064,0.429-0.1,0.593,0.033c0.165,0.132,0.561,0.099,0.692,0.164c0.132,0.067,0.56,0.231,0.792,0.231  c0.23,0,0.528,0.066,0.528,0.066s0.052-0.032-0.034-0.096c-0.086-0.062-0.347-0.086-0.52-0.124c-0.173-0.037-0.531-0.16-0.617-0.222  c-0.088-0.062-0.236-0.11-0.384-0.099c-0.148,0.013-0.482-0.11-0.482-0.11s-0.309-0.026-0.396-0.051  c-0.087-0.025-0.235,0.012-0.383-0.049c-0.149-0.062-0.348-0.038-0.284-0.148c0.062-0.111,0.259-0.247,0.221-0.384  c-0.036-0.135-0.036-0.321-0.036-0.321s0.111-0.321,0.013-0.408c-0.1-0.086-0.21-0.024-0.187-0.222  c0.025-0.197-0.048-0.346-0.036-0.433c0.013-0.086,0.036-0.234,0.148-0.234c0.11,0,0.322,0.037,0.557,0.085s0.618-0.112,0.618-0.21  c0-0.099,0.136-0.123,0.136-0.123s0.445-0.161,0.506-0.297c0.062-0.135,0.199-0.272,0.075-0.333  c-0.123-0.063-0.272-0.112-0.47-0.025c-0.199,0.086-0.469,0.038-0.469,0.038s-0.075-0.31-0.014-0.36  c0.062-0.049,0.124-0.197,0.346-0.185c0.223,0.013,0.471,0.037,0.57,0.013c0.099-0.025,0.209-0.112,0.271-0.186  c0.062-0.075,0.162,0.011,0.198,0.061c0.038,0.05-0.099,0.162-0.123,0.26s0.11,0.284,0.11,0.346c0,0.062-0.099,0.347,0.075,0.371  c0.173,0.025,0.233,0.05,0.371,0.173c0.135,0.125,0.543,0.099,0.841,0c0.296-0.098,0.717-0.197,0.68-0.531  c-0.038-0.333-0.1-0.556-0.05-0.63s0.11-0.185,0.11-0.185s0.038-0.383-0.123-0.432c-0.161-0.05-0.309-0.05-0.53,0.023  c-0.224,0.075-0.385,0.286-0.582,0.236c-0.199-0.049-0.372-0.111-0.52-0.062c-0.149,0.05-0.234,0.173-0.358,0.062  c-0.124-0.111-0.061-0.286,0.062-0.359c0.123-0.074,0.419-0.247,0.419-0.247s0.211-0.161,0.546-0.099  c0.332,0.061,0.48,0.025,0.518-0.062c0.037-0.086,0.013-0.284,0.148-0.445c0.136-0.16,0.26-0.408,0.544-0.458  s0.409-0.186,0.52-0.087c0.111,0.1,0.322,0.087,0.408,0.037c0.087-0.049-0.074-0.556-0.074-0.704c0-0.149-0.037-0.284,0.161-0.433  c0.197-0.149,0.259,0.086,0.42-0.235c0.16-0.322,0.283-0.42,0.357-0.359c0.075,0.062,0.236-0.173,0.396-0.173  c0.161,0,0.272-0.186,0.334-0.346c0.062-0.161,0.16-0.235,0-0.371s-0.667-0.346-0.755-0.557c-0.086-0.21-0.122-0.136-0.161-0.382  c-0.036-0.248-0.172-0.631-0.27-0.719c-0.101-0.085-0.336-0.444-0.36-0.58c-0.024-0.137-0.135-0.222-0.21-0.284  c-0.074-0.062-0.297-0.111-0.247-0.297c0.05-0.186,0.396-0.396,0.322-0.605c-0.075-0.21-0.594-0.433-0.669-0.433  c-0.073,0-0.544-0.112-0.655-0.199c-0.109-0.086-0.445-0.259-0.814-0.271c-0.372-0.012-0.619-0.161-0.842-0.198  c-0.223-0.038-0.37-0.247-0.309-0.384c0.062-0.136,0.012-0.296,0.247-0.309c0.234-0.013,0.211,0.111,0.433,0.025  c0.223-0.087,0.408-0.223,0.333-0.347c-0.073-0.124-0.852-0.124-0.863-0.086c-0.014,0.037-0.101,0.148-0.262,0.172  c-0.16,0.026-0.396-0.023-0.581,0.038c-0.184,0.062-0.246,0.123-0.432,0.284c-0.187,0.161-0.445,0.346-0.742,0.507  s-0.668,0.445-0.815,0.667c-0.149,0.222-0.214,0.494-0.214,0.494c-0.528,1.188,0.098,0.792-0.661,2.77  c-0.757,1.979-0.855,2.737-0.855,2.737s-0.1,0.954-0.298,1.12c-0.196,0.165-0.396,0.033-0.889,0.395  c-0.495,0.364-0.726,0.199-1.09,0.759c-0.361,0.559,0.33,0.957,0.199,1.385c-0.132,0.429-0.824,0.495-0.956,0.823  c-0.133,0.33-0.495,0.527-0.825,0.958c-0.329,0.429-0.264,0.396-0.429,0.824c-0.164,0.428-0.493,0.526-0.625,0.792  c-0.133,0.264-0.266,0.922-0.266,1.153c0,0.229-0.163,0.658,0.066,0.725c0.231,0.067,0.66,0.23,0.957-0.164  c0.296-0.396,1.153-0.066,1.352,0c0.197,0.065,0.526,0.132,0.824-0.165c0.297-0.297,0.56-0.33,0.56-0.33s0.593-0.692,0.627-0.461  c0.032,0.229,0.065,0.625-0.034,0.725c-0.099,0.098-0.329,0.329-0.493,0.526c-0.165,0.199-0.463,0.593-0.165,0.562  c0.298-0.032,0.792-0.625,0.924-0.725C73.973,48.909,74.204,48.909,74.501,48.611z M80.607,47c-0.111,0-0.209,0.174-0.32,0.174  c-0.072,0-0.038,0.148,0.098,0.284c0.137,0.135,0.358,0.31,0.445,0.246c0.087-0.062,0.21-0.123,0.062-0.396S80.719,47,80.607,47z   M84.503,45.702c-0.323-0.111-0.693-0.075-0.854-0.048c-0.345,0.052-0.618,0.68-0.618,0.68s-0.061,0.766,0.298,0.778  c0.357,0.012,0.865-0.272,1.211-0.556C84.884,46.271,84.823,45.813,84.503,45.702z M85.095,48.793  c-0.123,0.024-0.16,0.111-0.16,0.111c-0.086,0.111-0.493,0.222-0.371,0.371c0.124,0.147,0.31,0.234,0.668,0.234  s0.667-0.186,0.469-0.371C85.503,48.953,85.22,48.769,85.095,48.793z M87.668,45.133c-0.1-0.012-0.124,0.124-0.076,0.161  c0.196,0.148,0.322,0.248,0.458,0.248c0.137,0,0.186-0.161,0.124-0.21C88.112,45.281,87.767,45.146,87.668,45.133z M82.042,42.08  c-0.025,0.112,0,0.198,0.197,0.161c0.198-0.037,0.458,0.037,0.445-0.111c-0.013-0.147-0.173-0.186-0.271-0.173  C82.225,41.979,82.065,41.969,82.042,42.08z M83.253,41.734c-0.072,0.009-0.321,0.073-0.246,0.184  c0.073,0.112,0.085,0.086,0.271,0.063c0.186-0.026,0.247-0.248,0.149-0.261C83.328,41.708,83.339,41.721,83.253,41.734z   M84.255,41.474c-0.099,0.063-0.161,0.124-0.088,0.148c0.075,0.024,0.175-0.012,0.187-0.074  C84.365,41.487,84.255,41.474,84.255,41.474z M85.862,41.189c-0.119,0.021-0.272,0.111-0.123,0.136  c0.146,0.024,0.309,0.05,0.296-0.049C86.023,41.178,85.937,41.178,85.862,41.189z M86.689,40.967  c-0.1-0.021-0.233,0.073-0.222,0.161c0.013,0.086,0.197,0.086,0.297,0.037C86.863,41.116,86.752,40.979,86.689,40.967z   M87.26,41.041c0.11,0.013,0.123-0.134,0.086-0.148C87.231,40.854,87.148,41.029,87.26,41.041z M87.668,40.807  c-0.076,0.036-0.038,0.123-0.038,0.123s0.161-0.123,0.099-0.123C87.668,40.807,87.668,40.807,87.668,40.807z M88.434,40.609  c-0.062,0.012-0.1,0.05-0.1,0.05c-0.11,0.073-0.037,0.135,0.037,0.111c0.075-0.024,0.31-0.062,0.261-0.125  C88.582,40.584,88.495,40.595,88.434,40.609z M47.994,61.602c-0.3,0.302-0.543,0.691-0.445,0.84c0.1,0.147,1.139,0.049,1.286-0.099  c0.147-0.149,0.396-0.692,0.147-0.89C48.737,61.254,48.142,61.453,47.994,61.602z M52.001,56.902  c-0.792,0.149-1.435,1.038-1.633,1.682c-0.249,0.809,0.05,2.029,0.05,2.029s1.729,1.333,2.274,1.186  c0.543-0.148,0.99-0.94,1.434-1.78c0.444-0.841,0.346-1.483-0.197-2.126C53.385,57.249,52.791,56.755,52.001,56.902z M55.61,56.655  c-0.24,0.218-0.471,0.298-0.222,0.52c0.247,0.223,0.394,0.408,0.642,0.247c0.247-0.16,0.52-0.26,0.333-0.52  C56.178,56.643,55.869,56.421,55.61,56.655z M60.963,52.996c-0.358-0.186-0.865-0.433-1.1-0.357  c-0.235,0.073-0.459,0.159-0.545,0.408c-0.102,0.291,0.05,0.938,0.05,0.938s0.42,1.545,1.286,1.213  c0.865-0.335,1.1-0.915,0.927-1.323C61.407,53.466,61.322,53.181,60.963,52.996z M60.233,58.115c0.024-0.421-0.26-0.532-0.457-0.421  c-0.228,0.128-0.396,0.11-0.383,0.271c0.011,0.16,0.186,0.271,0.407,0.37C60.023,58.436,60.208,58.535,60.233,58.115z   M60.876,60.191c-0.32-0.112-0.47-0.235-0.902,0.013c-0.381,0.218-0.531,1.236-0.371,1.371c0.162,0.137,0.953,0.718,1.35,0.483  c0.394-0.235,0.479-0.742,0.506-1.138C61.482,60.525,61.198,60.304,60.876,60.191z M62.656,59.685  c-0.145,0.045-0.383,0.321-0.309,0.471c0.074,0.148,0.161,0.295,0.42,0.222c0.261-0.073,0.396-0.186,0.31-0.396  C62.99,59.77,62.817,59.636,62.656,59.685z M64.289,57.583c-0.235,0-0.197,0.062-0.173,0.173c0.03,0.141-0.334,0.433-0.075,0.481  c0.261,0.051,0.643-0.024,0.569-0.309C64.536,57.645,64.523,57.583,64.289,57.583z M36.396,69.051  c0.211,0.023,0.587,0.093,0.986,0.117c0.4,0.024,0.518-0.142,0.729-0.329c0.211-0.188-0.094-0.589-0.094-0.94  c0-0.353-0.494-0.47-0.846-0.611c-0.353-0.141-0.753-0.352-0.988-0.305s-0.822,0.54-0.847,0.916  C35.315,68.274,35.747,68.979,36.396,69.051z M37.382,71.565c0.564,0.023,0.518-0.424,0.518-0.846c0-0.423,0.047-0.471-0.446-0.705  c-0.494-0.236-0.775-0.236-1.222-0.165c-0.418,0.065-0.682,0.259-0.494,0.609c0.188,0.354,0.023,0.401,0.752,0.706  C37.218,71.471,36.819,71.542,37.382,71.565z M36.325,74.479c0.118,0.188,0.329,0.377,0.447,0.234  c0.117-0.14,0.118-0.445-0.141-0.492C36.468,74.192,36.206,74.291,36.325,74.479z"/></svg>