<svg xmlns="http://www.w3.org/2000/svg"  viewBox="0 0 100 100" x="0px" y="0px" fill="#FFF">
    <path d="M84.8,26.66H73.13a4.11,4.11,0,0,1-3.68-2.26l-2-4a8.9,8.9,0,0,0-8-4.91H40.54a8.9,8.9,0,0,0-8,4.91l-2,4a4.11,4.11,0,0,1-3.68,2.26H15.2A10.22,10.22,0,0,0,5,36.86V74.29a10.21,10.21,0,0,0,10.2,10.2H84.8A10.21,10.21,0,0,0,95,74.29V36.86A10.22,10.22,0,0,0,84.8,26.66ZM90,74.29a5.2,5.2,0,0,1-5.2,5.2H15.2a5.2,5.2,0,0,1-5.2-5.2V36.86a5.2,5.2,0,0,1,5.2-5.2H26.87a9.08,9.08,0,0,0,8.14-5l2-4a3.92,3.92,0,0,1,3.52-2.16H59.46A3.92,3.92,0,0,1,63,22.67l2,4a9.08,9.08,0,0,0,8.14,5H84.8a5.2,5.2,0,0,1,5.2,5.2Z"/>
    <path d="M50,37.4A18.18,18.18,0,1,0,68.17,55.58,18.2,18.2,0,0,0,50,37.4Zm0,31.35A13.18,13.18,0,1,1,63.17,55.58,13.19,13.19,0,0,1,50,68.75Z"/><path d="M80.11,36.27a5.28,5.28,0,1,0,5.28,5.28A5.29,5.29,0,0,0,80.11,36.27Zm0,7.56a2.28,2.28,0,1,1,2.28-2.28A2.29,2.29,0,0,1,80.11,43.83Z"/>
</svg>