<svg xmlns="http://www.w3.org/2000/svg" data-name="Layer 1" viewBox="0 0 100 125" x="0px" y="0px">
    <path d="M79.76709,5H20.2334a11.99093,11.99093,0,0,0-11.977,11.97754V57.61133A11.99072,11.99072,0,0,0,20.2334,69.58789H56.02246l17.436,23.81738a3.89243,3.89243,0,0,0,7.0332-2.29882v-21.54a11.99264,11.99264,0,0,0,11.252-11.95508V16.97754A11.99052,11.99052,0,0,0,79.76709,5Zm5.97656,52.61133a5.98311,5.98311,0,0,1-5.97656,5.97656H74.4917V84.65918L59.06641,63.58789H20.2334a5.98322,5.98322,0,0,1-5.977-5.97656V16.97754A5.98405,5.98405,0,0,1,20.2334,11H79.76709a5.984,5.984,0,0,1,5.97656,5.97754Z"/><circle cx="69.84583" cy="37.29401" r="5.48334"/><circle cx="50" cy="37.29401" r="5.48334"/><circle cx="30.15417" cy="37.29401" r="5.48334"/><text x="0" y="115" fill="#000000">
</svg>