<svg xmlns="http://www.w3.org/2000/svg" viewBox="0 0 100 100" x="0px" y="0px">
    <path d="M54.78046,33.94513,49.3349,39.39032a15.86737,15.86737,0,0,1,7.15,4.11945v.00048a15.96454,15.96454,0,0,1,0,22.582L39.25244,83.32324A15.96933,15.96933,0,0,1,16.66687,60.74072l8.07953-8.07855a31.189,31.189,0,0,1-.86658-9.033L11.7171,55.791A22.96932,22.96932,0,0,0,44.20221,88.273L61.43463,71.04248a22.93408,22.93408,0,0,0-6.65417-37.09735Z"/>
    <path d="M72.02863,5a22.81992,22.81992,0,0,0-16.24305,6.72754L38.55316,28.958a22.99273,22.99273,0,0,0,0,32.48193v.00049A22.80836,22.80836,0,0,0,45.21625,66.046l5.44226-5.442a15.84962,15.84962,0,0,1-7.15558-4.11383v.00049a15.98639,15.98639,0,0,1,0-22.583L60.73535,16.67676a15.9695,15.9695,0,1,1,22.58557,22.583l-8.06256,8.06164a31.1745,31.1745,0,0,1,.9065,7.47986q0,.77847-.03809,1.55072L88.27069,44.20947A22.96851,22.96851,0,0,0,72.02863,5Z"/>
</svg>