<svg xmlns="http://www.w3.org/2000/svg" xmlnsXlink="http://www.w3.org/1999/xlink" version="1.0" x="0px" y="0px" viewBox="0 0 100 125"  xmlSpace="preserve"><g>
    <path d="M64.75,41.98999c-0.06,0-0.12,0-0.17999,0.01001h-2.75c0.02997-0.01001,0.07001-0.01001,0.10999-0.01001H64.75z"/></g>
    <path d="M88.42996,31.83499L54.70999,31.845c-1.48999-1.17004-3.35999-1.88-5.39001-1.88c0,0-5.41998,0-6.87,0  c-1.45996,0-3.04999,1.15997-3.04999,1.15997c-1.83002,1.41003-3.16998,3.08002-4,4.97003c0,0-11.17999,0-11.44,0  c-3.63,0-6.58002,2.95001-6.58002,6.57996v5.47003h-1.66998c-0.25-2.46002-2.33002-4.38-4.84998-4.38  c-2.70001,0-4.89001,2.19-4.89001,4.89001c0,1.25,0.47998,2.44,1.33002,3.33002C6.44998,52.87497,5.97,54.05496,5.97,55.31497  c0,2.70001,2.19,4.89001,4.89001,4.89001c2.51996,0,4.59998-1.91998,4.84998-4.38h1.66998V59.285  c-0.92999,0.33997-1.66998,1.07001-2,2.01001h-1.02997c-1.52002,0-2.75,1.22998-2.75,2.73999s1.22998,2.73999,2.75,2.73999h23.88  c2.15997,2.02002,5.06,3.26001,8.25,3.26001h22.01996c2.98004,0,5.41003-2.42999,5.41003-5.42004v-0.35999  c0-1.40997-0.54999-2.70996-1.44-3.66998c1.92999-0.82001,3.27997-2.73999,3.27997-4.97003v-0.35999  c0-1.40997-0.54999-2.70996-1.44-3.66998C76.24002,50.76498,77.59,48.845,77.59,46.61496v-0.35999  c0-1.20996-0.39001-2.32001-1.07001-3.21997h11.90997c3.08002,0,5.60004-2.51001,5.60004-5.60004  C94.03,34.345,91.50998,31.83499,88.42996,31.83499z M12.99997,53.62497c-0.60999,0-1.09998,0.48999-1.09998,1.10004  c0,0.59998,0.48999,1.09998,1.09998,1.09998h0.49005c-0.24005,1.23999-1.32001,2.17999-2.63,2.17999  c-1.49005,0-2.69-1.20996-2.69-2.69c0-0.64996,0.25-1.27997,0.66998-1.76001h0.01001c1.76996-0.37,3.06-1.94,3.06-3.75995  c0-0.61005-0.48999-1.10004-1.10004-1.10004c-0.60999,0-1.09998,0.48999-1.09998,1.10004c0,0.38995-0.14001,0.75995-0.38,1.03998  C8.61002,50.345,8.17001,49.535,8.17001,48.655c0-1.48999,1.19995-2.69,2.69-2.69c1.47998,0,2.67999,1.20001,2.67999,2.69  c0,0.42999,0.13,0.97998,0.13,0.97998C13.81998,50.05496,14.22,50.345,14.68997,50.345H21.22  c0.89996,0,1.64001,0.72998,1.64001,1.64001c0,0.89996-0.74005,1.63995-1.64001,1.63995H12.99997z M28.32999,60.19498  c0,2.41998-1.96002,4.38-4.37,4.38h-9.60999c-0.29999,0-0.54999-0.23999-0.54999-0.53998s0.25-0.54004,0.54999-0.54004h1.94  c0.59998,0,1.09998-0.5,1.09998-1.09998c0-0.60999,0.48999-1.09998,1.09003-1.09998c0.60999,0,1.09998-0.49005,1.09998-1.10004  v-4.37H21.22c2.10999,0,3.83002-1.71997,3.83002-3.83997c0-2.12006-1.72003-3.84003-3.83002-3.84003h-1.64001v-5.47003  c0-2.41998,1.96002-4.37994,4.38-4.37994c1.59003,0,3.02002,0.85999,3.78003,2.17999h-2.14001  c-1.51001,0-2.73999,1.22998-2.73999,2.73999c0,1.52002,1.22998,2.75,2.73999,2.75h0.53998v0.53998  c0,1.32001,0.94,2.42999,2.19,2.69V60.19498z M28.84,64.57498c1.04999-1.15997,1.69-2.70001,1.69-4.38V48.14499  c0-0.59998-0.48999-1.09998-1.10004-1.09998h-0.53998c-0.29999,0-0.54999-0.24005-0.54999-0.54004v-1.64001  c0-0.60999-0.48999-1.09998-1.09998-1.09998h-1.64001c-0.29999,0-0.54999-0.25-0.54999-0.54999s0.25-0.54004,0.54999-0.54004  h3.71997c0.01001,0,0.02002,0,0.02002,0c0.60999,0,1.09998-0.48999,1.09998-1.09998c0-0.15002-0.02997-0.29999-0.08997-0.44  c-0.26001-1.08002-0.78003-2.04999-1.48999-2.83997h5.81c-0.19,0.85999-0.29004,1.75-0.29004,2.63995v17  c0,2.45001,0.73004,4.73004,1.98999,6.64001H28.84z M54.23001,64.25497v0.35999c0,1.20001,0.39996,2.32001,1.07001,3.22003h-8.82001  c-1.66003,0-3.23004-0.41003-4.60004-1.14001c-1.03998-0.53998-1.96997-1.27002-2.75-2.12  c-1.57996-1.76001-2.54999-4.08997-2.54999-6.64001v-17c0-0.89996,0.12-1.77997,0.37-2.63995  C36.97,38.19498,36.99997,38.095,37.03,37.99496c0.21997-0.70996,0.51001-1.33997,0.83002-1.89996  c1.00995-1.78003,2.34998-2.82001,2.88-3.23004c0,0,0.00995,0,0.00995-0.00995c0.62-0.46002,1.38-0.69,2.16003-0.69h6.40997  c3.60004,0,6.53003,2.92999,6.53003,6.52997v13.97003l-0.90002-0.09003c-3.34998-0.58002-5.89996-3.5-5.89996-7.01001v-5.5  c0-0.59998-0.5-1.09998-1.10004-1.09998h-3c-0.60999,0-1.09998,0.5-1.09998,1.09998v1.54999  c0,2.95001-2.40002,5.35004-5.35004,5.35004c-0.60999,0-1.09998,0.5-1.09998,1.09998c0,0.60999,0.48999,1.10004,1.09998,1.10004  c4.16003,0,7.55005-3.38,7.55005-7.55005v-0.44995h0.79999v4.39996c0,4.48999,3.17999,8.25,7.41998,9.13  c-0.02002,0.17999-0.03998,0.37-0.03998,0.56v0.35999c0,1.77002,0.84998,3.34003,2.15997,4.32001  C55.07999,60.91501,54.23001,62.48502,54.23001,64.25497z M71.70999,64.61496c0,1.78003-1.44,3.22003-3.21002,3.22003h-8.84998  c-1.77002,0-3.22003-1.44-3.22003-3.22003v-0.35999c0-1.77997,1.45001-3.21997,3.22003-3.21997h8.84998  c1.77002,0,3.21002,1.44,3.21002,3.21997V64.61496z M73.55002,55.61496c0,1.78003-1.44,3.22003-3.21002,3.22003h-10.69  c-1.77002,0-3.22003-1.44-3.22003-3.22003v-0.35999c0-0.12,0.02002-0.23999,0.04004-0.37h0.47998  c0.60004,0,1.10004-0.48999,1.10004-1.09998v-1.29999c0.46997-0.28003,1.00995-0.45001,1.59998-0.45001h10.69  c1.77002,0,3.21002,1.44,3.21002,3.21997V55.61496z M75.38998,46.61496c0,1.78003-1.44,3.22003-3.21002,3.22003H59.64999  c-0.59003,0-1.13-0.16998-1.59998-0.44v-5.90997c0.46997-0.28003,1.00995-0.45001,1.59998-0.45001h12.56  c1.76001,0.01996,3.17999,1.45001,3.17999,3.21997V46.61496z M88.42996,40.83499H72.20999c0,0-5.26001,0-9.07001,0h-3.67999  c-0.5,0-0.97998,0.10999-1.40997,0.26001v-2.40002c0-1.70996-0.51001-3.29999-1.36005-4.64996h4.23004  c0.03998,0,0.07996,0,0.10999-0.01001h27.39996c1.87006,0,3.40002,1.52997,3.40002,3.39996  C91.82999,39.31497,90.30002,40.83499,88.42996,40.83499z"/>
</svg>