<svg xmlns:dc="http://purl.org/dc/elements/1.1/" xmlns:cc="http://creativecommons.org/ns#" xmlns:rdf="http://www.w3.org/1999/02/22-rdf-syntax-ns#" xmlns:svg="http://www.w3.org/2000/svg" xmlns="http://www.w3.org/2000/svg" xmlns:sodipodi="http://sodipodi.sourceforge.net/DTD/sodipodi-0.dtd" xmlns:inkscape="http://www.inkscape.org/namespaces/inkscape" viewBox="0 0 26.458333 33.0729175" version="1.1" x="0px" y="0px"><g transform="translate(0,-270.54165)"><path style="color:#000000;font-style:normal;font-variant:normal;font-weight:normal;font-stretch:normal;font-size:medium;line-height:normal;font-family:sans-serif;font-variant-ligatures:normal;font-variant-position:normal;font-variant-caps:normal;font-variant-numeric:normal;font-variant-alternates:normal;font-feature-settings:normal;text-indent:0;text-align:start;text-decoration:none;text-decoration-line:none;text-decoration-style:solid;text-decoration-color:#000000;letter-spacing:normal;word-spacing:normal;text-transform:none;writing-mode:lr-tb;direction:ltr;text-orientation:mixed;dominant-baseline:auto;baseline-shift:baseline;text-anchor:start;white-space:normal;shape-padding:0;clip-rule:nonzero;display:inline;overflow:visible;visibility:visible;opacity:1;isolation:auto;mix-blend-mode:normal;color-interpolation:sRGB;color-interpolation-filters:linearRGB;solid-color:#000000;solid-opacity:1;vector-effect:none;fill:#000000;fill-opacity:1;fill-rule:nonzero;stroke:none;stroke-width:1.05833328;stroke-linecap:round;stroke-linejoin:round;stroke-miterlimit:4;stroke-dasharray:none;stroke-dashoffset:0;stroke-opacity:1;color-rendering:auto;image-rendering:auto;shape-rendering:auto;text-rendering:auto;enable-background:accumulate" d="m 2.1353303,274.11353 a 0.54788537,0.55188507 0 0 0 -0.5478305,0.55182 v 18.21093 a 0.54788537,0.55188507 0 0 0 0.5478305,0.55183 H 24.323003 a 0.54788537,0.55188507 0 0 0 0.547831,-0.55183 v -18.21093 a 0.54788537,0.55188507 0 0 0 -0.547831,-0.55182 z m 0.5478306,1.1042 H 23.775173 v 17.10671 H 2.6831609 Z m 5.277684,3.41552 c -1.3550224,0 -2.4647001,1.11777 -2.4647025,2.48269 2.4e-6,1.36492 1.1096801,2.4827 2.4647025,2.4827 1.3550227,0 2.4647011,-1.11778 2.4647031,-2.4827 -2e-6,-1.36492 -1.1096804,-2.48269 -2.4647031,-2.48269 z m 0,1.10365 c 0.7628842,0 1.3690407,0.61059 1.3690417,1.37904 -10e-7,0.76845 -0.6061575,1.3812 -1.3690417,1.3812 -0.7628839,0 -1.36904,-0.61275 -1.3690414,-1.3812 1.4e-6,-0.76845 0.6061575,-1.37904 1.3690414,-1.37904 z m 9.5977351,1.45611 a 0.54788532,0.55188502 0 0 0 -0.378239,0.18268 l -3.825719,4.29069 -1.797569,-1.81176 a 0.54788532,0.55188502 0 0 0 -0.759152,-0.0146 l -7.1207273,6.62249 a 0.54788532,0.55188502 0 1 0 0.7420324,0.80942 l 6.7360689,-6.26198 4.558657,4.59194 a 0.54788532,0.55188502 0 1 0 0.773061,-0.77978 l -2.357169,-2.37492 3.495095,-3.91831 4.951874,4.60594 a 0.54812617,0.55212763 0 0 0 0.769852,-0.78571 0.54788532,0.55188502 0 0 0 -0.02782,-0.0264 l -5.358468,-4.98372 a 0.54788532,0.55188502 0 0 0 -0.401778,-0.14604 z"/></g><text x="0" y="41.458334" fill="#000000" font-size="5px" font-weight="bold" font-family="'Helvetica Neue', Helvetica, Arial-Unicode, Arial, Sans-serif">Created by Icons Bazaar</text><text x="0" y="46.458334" fill="#000000" font-size="5px" font-weight="bold" font-family="'Helvetica Neue', Helvetica, Arial-Unicode, Arial, Sans-serif">from the Noun Project</text></svg>