<svg xmlns="http://www.w3.org/2000/svg" xmlns:xlink="http://www.w3.org/1999/xlink" version="1.1" x="0px" y="0px" viewBox="0 0 100 125" enable-background="new 0 0 100 100" xml:space="preserve"><g><defs><rect id="e" x="1.5" y="0.8" width="97" height="98.3"/></defs><clipPath id="d"><use xlink:href="#e" overflow="visible"/></clipPath><g clip-path="url(#d)"><defs><rect id="c" x="1.5" y="0.8" width="97" height="98.3"/></defs><clipPath id="b"><use xlink:href="#c" overflow="visible"/></clipPath><g clip-path="url(#b)"><g><defs><rect id="a" x="-0.3" y="-0.5" width="100.6" height="99.9"/></defs><clipPath><use xlink:href="#a" overflow="visible"/></clipPath></g></g></g></g><g><g><g><g><path fill="#b90000" d="M40,88.5c-0.5-3.7-0.2-5.8,0-9.5c0.1-1.4,0.6-3-0.4-4.2c0,0,0.7-0.8,0.7-1.2c-0.1-3.6-0.2-6.5,0.1-10.1      c0.2-2.3,0.1-4.7-0.7-6.1c-0.1-1.8-0.6-3.5-0.1-4.7c0.4-1,1.1-2.7-1.1-2.8c-0.3,0-1.2,0.1-1.3,0.5c-0.6,4.5-0.6,8.6-1.2,12.7      l0.2,14.3l-0.6-4.4c-1.2-0.3-2.1-1-3-1.7c0,0.7,0.2,1.6-0.4,2c-1.2-2.5-0.5-6.1-0.8-9.4c-0.6-6.2-0.9-13.2-0.9-19.1      c-1.3-0.5-3.2-0.6-4.9-0.7c-2-0.1-1.1-2.3-2.1-2.8c-1.7-1-3-3.6-1.4-5.2c0.3-0.3-0.5-1.2-0.8-1.8c0.6-0.4,2.3,0,3.1,0.5      c0.8,0.6,2.2,0.6,3-0.2c0.5-0.6-0.6-1.8-0.8-2.8c-0.2-1,0.3-2.5,2-3c0.2-0.1,1.3,0,1.7-0.1c0.6-0.1,1.7-0.5,1.4-1      c-0.5-1.2-1.3-2.9-0.8-5.2l2.5-3.3c0.6-0.8-0.6-1.9-0.7-2.7c0-0.7,0.4-1.8,1.5-1.5c1.8,0.4,1.1,2.6,1.8,2.7c2.4,0.1,4-1,4.6-2.5      c-0.1-2.6,0.7-4.7,1.4-6.9C42.5,7.1,41.2,6.1,41,5c0.6,0.1,0.7,0.6,1.1,0.8c0.6,0.4,1-0.4,1.5-0.4c0.6-0.1,1.5,0.1,1.7,0.7      c0.6,1.6,0.9,3.5,1.5,5.7c-1.2,1.7-1.3,4.4-0.3,6.5c0.2,0.4,0.7,0.9,1.4,0.7c1.4-0.4,2.7,0.5,3.6,1.3c0.6-0.1,2.1-0.7,2.5-0.6      c0.9,0.2,1.2,1,1.5,1.5c1.1,2,3.4,3.5,7.7,2.9c1.1-0.7,1.8-2.2,3.1-3.6c0.2-0.2,0-1.5,0.1-1.9c0.1-0.9,0.7-1.8,1.8-2.2      c0.9-0.3,1.3,0.6,1.3,1c0,2.7-2.8,3.7-3.8,5.8c-0.5,1.1-0.8,2.1-0.2,3.1c1.7,3.1,3.9,6,6.3,8.8c-0.3,1.2-1.2,2.3-1.3,3.9      c-0.2,3.4-1.9,6.5-6,7.3c0.3,5.2,1.7,9.7,3.6,13.6c0.1,0.3,0,1.3,0.1,1.5c0.2,0.4,0.4,1.7,1.2,0.7c0.1,0.6-0.5,1.2-0.2,1.3      c2.8,1.1,4,4.5,2.6,7.6c-0.2,0.5-1,1.1-1.8,1.4c-2.8,1-5.2-0.4-6.3-1.7c-0.8-1-1.8-2.5-1.1-3.3c1-1.2,0.1-2.7-1.1-3.8      c1-0.9-0.1-1.7-0.6-2.3c-0.4-0.5,0.7-0.3,0.9-0.3l-3.1-14.3c-0.2-0.9-0.6-1.8-0.4-3c-1.5-0.7-2.9-1.5-3.9-2.5      c-0.6-0.6-1.7-0.7-2.6-0.6c0.1,2.2,0.5,4.4,1.6,6c1.5,2.1-0.5,4.9-3.3,5.1c0.3,1.6,0.7,3.1,1.2,4.4c0.3,0.7,1.2,0.9,1.5,1.1      c1.2,0.8,1,1.8,0.5,2.6c-0.4,0.7,1.1,1.1,1.1,1.3c-0.2,3,1.9,4.8,2.3,7.3c0.1,0.9,0.9,1.8,2.2,2.2c0.1,2,0.2,3.5,1.2,5      c0.8,1.3,1.9,2.7,1.7,4.8c1.2,0.7,2.6,1.9,2.1,3.6c-0.2,0.6-1.6,0.6-2.2,0.1c-1.3-1.2-0.1-3-1.1-4.2c-1.8-2.2-1.8-5.4-3.9-7.5      c-0.2-2-0.4-4.1-1.9-5.7c-1.1-3.5-2-6.1-4-8.1c0.9-2.4-0.6-5-1.5-6.5c-3.6-0.9-5.4-3.3-5.9-5.9c-0.7,0.4-1.9,0.9-2.2,1.6      c-0.5,1.1,0,2.5,0.6,3.5c0.3,0.5,1.3,0.5,2.1,0.7c0.7,0.1,1.1,0.9,0.9,1.4c-0.2,0.6-1.4,0.9-1.6,1.6      C41.1,65.3,41.1,77.4,40,88.5 M32.1,49.8c0,0.2-0.2,0.8-0.2,0.4c0.2,7.5,0.2,14.6,1.2,20.9c0.7-0.5,1.5-0.8,2.3-1.1      c-0.1-3.5-0.2-6.3-0.8-9.9c1.2-3.3,1.2-7.8,1.5-11.9c0-0.6-2.7-1.4-4-2.1C32.1,46.8,32.1,49,32.1,49.8 M62.9,85.7      c-0.2-0.2,0.2-1.1,0.5-0.3c0.2,0.4,0.7,0.5,1.4,0.4c2.3-0.3,4.5,1,5,2.4c0.7,1.9-0.6,4-2.8,4.5c-2.7,0.6-5.1-0.4-5.9-1.8      c-0.3-0.6-0.6-1.3-0.4-2c0.4-1.2,1.5-2.1,2.6-2.8C63.1,86,62.9,85.8,62.9,85.7 M36.5,82.7c0.2-0.2,0.4-0.7,0.9-0.4      c1,0.7,2.1,2.1,1,3.1c-0.5,0.5-1.5,0.7-2.3,0.4c-1.1-0.5-0.6-1.7-0.2-2.5C35.9,83.1,36.3,82.9,36.5,82.7 M49.2,70.1      c1.3,0.8,1.9,2.7,0.7,3.9c-1.1-0.2-1.5-1.1-1.5-1.8C48.4,71.5,48.6,70.8,49.2,70.1 M40,88.5c-0.5,2.1,0.4,4.4,0.1,6.4      c-0.1,0.5-1.2-0.4-1.2-0.7C39.2,92.4,40.1,90.7,40,88.5 M34.6,90.9c0.8-0.7,0.6,1.2,0.8,1.5c0.4,0.8,0.3,1.5-0.3,1.9      c-0.8,0.5-1.3-0.5-1.3-0.9C33.7,92.6,33.7,91.7,34.6,90.9 M34.2,11.9c0.7-0.3,1.2,0.4,1.4,0.8c0.3,0.5-0.4,0.8-0.9,1      c-0.9,0.3-1.7-0.6-1.5-1.1C33.3,12.5,33.9,12,34.2,11.9 M47.4,60c0-0.2-0.1-1.2,0-1.3c0.6-0.5,1.8,0.3,1.5,0.9      C48.7,60,48,60.2,47.4,60 M68,59.8c0-0.5,0.3-0.9,0.7-1.3c0.2-0.3,0.5-0.6,1,0l0.7-1.6c0,0.5,0.2,1.3,0,1.7      C70,59.2,68.4,58.9,68,59.8 M57.6,54.9v-1.1c1.2-0.5,1.2,0.5,1,1.1H57.6z M63,94c0.2-0.3,1.4-0.4,1.1,0.1      C63.9,94.4,62.7,94.5,63,94"/></g></g></g></g></svg>